<svg xmlns="http://www.w3.org/2000/svg" viewBox="0 0 32 32" fill="none">
  <!-- Background circle with gradient -->
  <defs>
    <linearGradient id="bgGradient" x1="0%" y1="0%" x2="100%" y2="100%">
      <stop offset="0%" style="stop-color:#F59E0B;stop-opacity:1" />
      <stop offset="100%" style="stop-color:#EA580C;stop-opacity:1" />
    </linearGradient>
  </defs>
  
  <!-- Background -->
  <rect width="32" height="32" rx="8" fill="url(#bgGradient)"/>
  
  <!-- Palette icon -->
  <path d="M16 6C10.477 6 6 10.477 6 16C6 21.523 10.477 26 16 26C16.828 26 17.5 25.328 17.5 24.5C17.5 24.11 17.35 23.76 17.11 23.49C16.88 23.23 16.73 22.89 16.73 22.5C16.73 21.672 17.402 21 18.23 21H20C23.314 21 26 18.314 26 15C26 9.937 21.418 6 16 6ZM10.5 16C9.672 16 9 15.328 9 14.5C9 13.672 9.672 13 10.5 13C11.328 13 12 13.672 12 14.5C12 15.328 11.328 16 10.5 16ZM13.5 12C12.672 12 12 11.328 12 10.5C12 9.672 12.672 9 13.5 9C14.328 9 15 9.672 15 10.5C15 11.328 14.328 12 13.5 12ZM18.5 12C17.672 12 17 11.328 17 10.5C17 9.672 17.672 9 18.5 9C19.328 9 20 9.672 20 10.5C20 11.328 19.328 12 18.5 12ZM21.5 16C20.672 16 20 15.328 20 14.5C20 13.672 20.672 13 21.5 13C22.328 13 23 13.672 23 14.5C23 15.328 22.328 16 21.5 16Z" fill="white"/>
</svg>
